<?xml version="1.0" encoding="UTF-8"?>
<svg xmlns="http://www.w3.org/2000/svg" version="1.1" id="Layer_1" x="0px" y="0px" viewBox="0 0 4059.9 625.9" style="enable-background:new 0 0 4059.9 625.9;" xml:space="preserve">

<style type="text/css">

	.st0{fill:none;stroke:#BA8748;stroke-width:46;stroke-miterlimit:3;}

</style>

<g>

	<g>

		<path d="M315.5,309.5v-13c42.7-3.7,44.8-6.1,44.3-55.4l-1.6-189.9h-2.1l-128.5,255H217L99,57.7H98L90,190.4     c-2.1,38.2-2.1,58.6-1.6,77.3c1.1,22.3,13.7,25.6,48.5,28.9v13H14.2v-13c30.6-3.3,41.1-8.4,44.8-27.9c2.6-16.3,5.8-36.8,10-85.2     l7.4-96.8c4.7-60.5,2.1-62.4-45.8-66.6V7h86.4L237,239.7L358.7,7h89.6v13c-46.4,3.7-50,4.7-48.5,52.6l5.3,168.5     c1.6,49.3,3.2,51.7,49,55.4v13H315.5z" />

		<path d="M665.9,0c89,0,169.6,61.4,169.6,154.5c0,100.5-79.6,162-176,162c-95.4,0-171.2-65.6-171.2-155C488.3,77.7,554.7,0,665.4,0     H665.9z M654.3,16.8c-58.5,0-112.2,44.7-112.2,131.7c0,87.5,54.3,151.3,128.5,151.3c58.5,0,111.2-43.3,111.2-132.6     c0-98.2-58-150.3-127-150.3H654.3z" />

		<path d="M1184.3,313.2c-6.3,0-12.1,0-18.4-0.5c-39.5-1.9-61.6-12.1-85.3-42.4c-18.4-22.8-37.4-51.7-53.2-74.5     c-9-13-17.9-18.6-45.3-18.6h-16.9v74c0,39.6,4.7,42.4,46.9,45.1v13H873.5v-13c43.2-2.8,47.9-5.6,47.9-45.1V64.2     c0-39.6-4.2-41-45.3-44.2V7h130.7c38.5,0,64.3,4.2,84.3,15.8c21.1,12.1,34.8,33,34.8,61c0,40-27.9,64.7-66.9,79.6     c9,15.4,31.1,46.5,46.9,67.5c19,24.2,29.5,36.3,42.7,48.4c14.2,14,26.3,19.1,37.9,21.9L1184.3,313.2z M990.4,162     c26.9,0,44.3-3.7,57.4-13c20.5-14,29-32.6,29-57.7c0-50.3-37.4-68.9-77.4-68.9c-15.3,0-24.2,1.9-28.4,4.7     c-3.7,2.3-5.8,7.9-5.8,20.5V162H990.4z" />

		<path d="M1541.5,182c-31.6,4.2-33.7,6.5-33.7,34v39.6c0,16.3,0.5,31.2,3.7,43.7c-32.7,7-75.9,17.2-118,17.2     c-115.9,0-193.4-63.8-193.4-155.9c0-108,98-160.6,201.3-160.6c43.7,0,84.3,10.2,101.2,13.5c1.6,16.3,4.2,41.9,8.4,72.6l-14.8,2.8     c-12.6-56.8-52.7-72.1-102.7-72.1c-80.6,0-139.6,52.1-139.6,138.2c0,67,44.8,145.2,146.5,145.2c17.9,0,34.2-3.3,45.8-8.4     c10.5-5.1,16.9-10.7,16.9-30.3V222c0-33.5-3.7-36.3-55.3-40v-12.6h133.8V182z" />

		<path d="M1779.1,309.5v-13c33.2-3.7,37.9-7.4,31.1-25.6c-6.8-18.2-17.4-43.3-29-71.7H1669c-8.4,20.9-16.3,40.5-23.2,60     c-11.6,29.3-6.8,34,32.7,37.2v13h-114.3v-13c33.2-4.2,40.6-7,59-47.9L1732.2,4.2l16.3-4.2c32.7,80.1,68,168.5,101.7,249.5     c16.9,40,23.7,44.2,58,47v13H1779.1z M1727.5,60.5h-1.1c-16.9,40-33.7,80.5-49.5,118.7h96.9L1727.5,60.5z" />

		<path d="M2296.4,20c-29.5,1.4-42.1,7.4-44.3,27.9c-2.1,14-3.2,34.9-3.2,78.2v187.6h-16.3L2008.3,69.8h-1.1v116.8     c0,42.8,1.6,65.2,3.2,78.7c2.6,23.7,14.8,29.3,50.6,31.2v13h-124.9v-13c30.6-1.4,43.7-7.4,46.4-30.3c1.6-14.4,3.2-36.8,3.2-79.6     V84.2c0-34-1.1-35.8-10.5-47c-10.5-11.6-22.1-15.4-46.9-17.2V7h78l219.7,233.6h1.6V126.1c0-42.8-2.1-64.2-3.7-77.3     c-2.6-20.9-15.3-27-51.6-28.9V7h124.3V20z" />

		<path d="M2767.4,232.7c-7.4,21.4-20.5,55.8-30,71.2c-14.8,3.3-59,12.6-96.9,12.6c-131.2,0-188.6-80.1-188.6-154     c0-97.7,85.3-162.4,202.8-162.4c42.7,0,78.5,10.2,93.3,12.6c4.2,26.5,7.4,45.1,10.5,70.3l-15.8,3.3     c-13.7-49.3-45.3-69.3-102.2-69.3c-88,0-134.9,65.6-134.9,136.4c0,87,58,146.6,138,146.6c53.7,0,82.2-25.6,108.5-72.1     L2767.4,232.7z" />

		<path d="M3109.3,313.2c-6.3,0-12.1,0-18.4-0.5c-39.5-1.9-61.6-12.1-85.3-42.4c-18.4-22.8-37.4-51.7-53.2-74.5     c-9-13-17.9-18.6-45.3-18.6h-16.9v74c0,39.6,4.7,42.4,46.9,45.1v13h-138.6v-13c43.2-2.8,47.9-5.6,47.9-45.1V64.2     c0-39.6-4.2-41-45.3-44.2V7h130.7c38.5,0,64.3,4.2,84.3,15.8c21.1,12.1,34.8,33,34.8,61c0,40-27.9,64.7-66.9,79.6     c9,15.4,31.1,46.5,46.9,67.5c19,24.2,29.5,36.3,42.7,48.4c14.2,14,26.3,19.1,37.9,21.9L3109.3,313.2z M2915.5,162     c26.9,0,44.3-3.7,57.4-13c20.5-14,29-32.6,29-57.7c0-50.3-37.4-68.9-77.4-68.9c-15.3,0-24.2,1.9-28.4,4.7     c-3.7,2.3-5.8,7.9-5.8,20.5V162H2915.5z" />

		<path d="M3393.8,236c-3.2,15.4-13.7,59.1-18.4,73.5h-253.9v-13c47.9-3.3,52.2-7,52.2-44.7V66.6c0-41.9-4.2-43.3-45.3-46.5V7h235     c0,11.6,2.6,43.3,4.2,67l-15.3,2.3c-4.7-19.5-10-29.8-16.9-40c-7.4-9.8-21.6-13-59.5-13h-40c-16.3,0-17.4,0.9-17.4,14.9v105.6     h49.5c47.4,0,50-3.7,56.9-34.9h15.3v89.4h-15.3c-6.8-33.5-10.5-36.3-56.4-36.3h-50v88c0,21.9,3.2,31.6,12.6,37.7     c10,5.6,28.4,6.1,54.8,6.1c40,0,54.8-3.7,66.4-15.8c9-9.3,19-25.1,25.8-43.7L3393.8,236z" />

		<path d="M3693.1,236c-3.2,15.4-13.7,59.1-18.4,73.5h-253.9v-13c47.9-3.3,52.2-7,52.2-44.7V66.6c0-41.9-4.2-43.3-45.3-46.5V7h235     c0,11.6,2.6,43.3,4.2,67l-15.3,2.3c-4.7-19.5-10-29.8-16.9-40c-7.4-9.8-21.6-13-59.5-13h-40c-16.3,0-17.4,0.9-17.4,14.9v105.6     h49.5c47.4,0,50-3.7,56.9-34.9h15.3v89.4h-15.3c-6.8-33.5-10.5-36.3-56.4-36.3h-50v88c0,21.9,3.2,31.6,12.6,37.7     c10,5.6,28.4,6.1,54.8,6.1c40,0,54.8-3.7,66.4-15.8c9-9.3,19-25.1,25.8-43.7L3693.1,236z" />

		<path d="M3974.9,309.5c-40.6-40.5-83.2-86.1-130.7-135.4c-12.1-12.6-19.5-14.4-28.4-13v88.4c0,41,5.3,44.2,48.5,47v13h-137v-13     c40-2.8,44.8-6.1,44.8-47v-182c0-42.4-4.7-44.7-46.4-47.5V7h135.9v13c-40.6,2.8-45.8,6.1-45.8,47.5v81.4     c11.6-2.8,22.1-9.3,36.9-21.4c29-24.7,64.8-56.8,88.5-82.4c15.3-16.8,15.3-21.4-9-23.7l-11.6-1.4V7h126.4v13     c-40,3.3-52.2,7.9-85.9,34.9c-20,16.3-57.4,49.3-93.3,81.4c40,43.7,97.5,101.5,123.8,126.6c27.9,26.5,38.5,30.7,64.3,33.5v13     H3974.9z" />

	</g>

	<g>

		<path d="M165.5,587c-3.3,10.2-9.8,26.2-14.1,33.4c-6.8,1.3-29.1,5.5-46.4,5.5c-65.3,0-92.9-36.6-92.9-70.2     c0-43.8,39.9-73.6,98.4-73.6c20.3,0,38.4,4.4,45.2,5.7c2.3,11.6,4,21.2,5.5,33.6l-8.5,1.5c-7.5-24.1-25.4-32.2-47.7-32.2     c-38.4,0-59.2,29.2-59.2,60.7c0,39.1,25.9,65.4,61.5,65.4c22.6,0,37.4-11.4,50-32.6L165.5,587z" />

		<path d="M343.7,622.7V616c15.1-1.9,16.8-4,13.1-13.1c-2.8-7-7-16.9-11.5-27.1h-50c-3.3,7.6-6.8,15.9-9.8,24.3     c-4.3,11.4-3,14.2,15.3,15.9v6.8h-55.5V616c16.3-1.7,19.6-3.8,28.1-22l51.7-109.4l11-2.5c15.8,36.8,31.6,74.9,48,111.3     c8.3,18.6,11.5,21.2,27.6,22.6v6.8H343.7z M321.1,516.7h-0.5c-7.5,16.3-14.3,32.8-21.3,48.7h41.9L321.1,516.7z" />

		<path d="M564.1,485.2c19.1,0,33.4,2.3,43.4,8.3c11,6.8,17.8,16.9,17.8,30.9c0,27.9-24.9,41-50.7,43.6c-3.8,0.4-7.8,0.4-10.8,0.4     l-17.6-3.8v30.7c0,18,2.3,19.3,24.1,20.7v6.8h-74.6V616c19.3-1.5,21.6-3,21.6-20.7v-82.5c0-18.2-2.3-19.3-20.1-20.7v-6.8H564.1z      M546.3,556.7c3,1.3,8.8,2.3,15.3,2.3c11.8,0,31.9-6.1,31.9-34.1c0-23.7-16.6-32.2-33.6-32.2c-5.8,0-9.5,1.1-11,2.3     c-1.8,1.3-2.5,3.6-2.5,7.6V556.7z" />

		<path d="M712.3,622.7V616c19.3-1.3,21.6-2.8,21.6-20.7v-82.5c0-18-2.3-19.5-21.6-20.7v-6.8h72.1v6.8c-19.3,1.3-21.3,2.8-21.3,20.7     v82.5c0,18,2,19.5,21.3,20.7v6.8H712.3z" />

		<path d="M1008.5,520.1c-3-10.8-6-17.1-10-20.9c-4.3-4.2-9.8-5.5-26.1-5.5h-13.6v101.8c0,17.6,2.3,19.3,25.1,20.5v6.8h-78.3V616     c21.8-1.3,24.1-3,24.1-20.5V493.7h-11c-20.8,0-25.6,2.1-29.1,6.1c-3.8,3.6-6.5,10.4-9.5,20.3h-8.5c1-14.4,2.5-29.2,3-40.2h5.8     c3.8,4.9,7,5.3,14.1,5.3h100.4c6.5,0,9.5-1.3,13.8-5.3h5.8c0,9.1,1.3,26.7,2.5,39.6L1008.5,520.1z" />

		<path d="M1176.2,622.7V616c15.1-1.9,16.8-4,13.1-13.1c-2.8-7-7-16.9-11.5-27.1h-50c-3.3,7.6-6.8,15.9-9.8,24.3     c-4.3,11.4-3,14.2,15.3,15.9v6.8h-55.5V616c16.3-1.7,19.6-3.8,28.1-22l51.7-109.4l11-2.5c15.8,36.8,31.6,74.9,48,111.3     c8.3,18.6,11.5,21.2,27.6,22.6v6.8H1176.2z M1153.6,516.7h-0.5c-7.5,16.3-14.3,32.8-21.3,48.7h41.9L1153.6,516.7z" />

		<path d="M1454.7,587.8c-2,8-7,29-9.3,34.9h-119V616c21.6-1.3,23.8-2.8,23.8-20.7v-82.5c0-18.2-2-19.5-21.8-20.7v-6.8h72.6v6.8     c-19.3,1.3-21.6,2.5-21.6,20.7v82.9c0,10.6,1,14.6,6,16.5c4.5,1.7,11.8,2.1,20.6,2.1c12.1,0,20.8-1.3,26.6-7     c4.8-4.2,9.3-11,13.6-21.4L1454.7,587.8z" />

		<path d="M1796.8,622.7v-7c19.6-1.5,20.6-3,20.3-23.5l-0.5-83.1h-1l-57.7,112.1h-6.3l-53-109.8h-0.8l-3.3,56.9     c-1,17.6-1,27.3-0.3,34.7c0.8,9.5,6,11.4,22.8,12.7v7h-59.8v-7c14.3-1.1,19.1-4.4,20.8-12.5c1.5-6.8,3.3-17.1,5-39.3l3.8-42.7     c2-25.2,0.3-27.5-21.6-29.2v-6.8h48l51.7,97.3l52.5-97.3h47.7v6.8c-20.8,1.7-22.1,3-21.6,22l2.5,78.3c0.5,20.5,1.5,21.8,21.8,23.5     v7H1796.8z" />

		<path d="M2048.9,622.7V616c15.1-1.9,16.8-4,13.1-13.1c-2.8-7-7-16.9-11.5-27.1h-50c-3.3,7.6-6.8,15.9-9.8,24.3     c-4.3,11.4-3,14.2,15.3,15.9v6.8h-55.5V616c16.3-1.7,19.6-3.8,28.1-22l51.7-109.4l11-2.5c15.8,36.8,31.6,74.9,48,111.3     c8.3,18.6,11.5,21.2,27.6,22.6v6.8H2048.9z M2026.3,516.7h-0.5c-7.5,16.3-14.3,32.8-21.3,48.7h41.9L2026.3,516.7z" />

		<path d="M2373,492c-13.6,0.6-19.1,3.4-20.3,12.9c-1,6.6-2,16.3-2,35.3v84.6h-10.5l-105.4-107.5h-0.5v49.7c0,18.8,1,28.3,1.8,34.7     c1.3,9.9,6.3,13.3,24.1,14.2v6.8h-60.5V616c14.1-0.8,20.1-4,21.1-13.5c1-7,2.3-16.5,2.3-35.3V522c0-14.6-0.5-17.3-5-22.2     c-5-5.3-10.5-7-21.6-7.8v-6.8h42.9l99.2,97.7h0.8v-42.7c0-18.8-1.3-28.8-1.8-34.9c-1.3-9.3-6.8-12.5-24.9-13.3v-6.8h60.5V492z" />

		<path d="M2540.5,622.7V616c15.1-1.9,16.8-4,13.1-13.1c-2.8-7-7-16.9-11.5-27.1h-50c-3.3,7.6-6.8,15.9-9.8,24.3     c-4.3,11.4-3,14.2,15.3,15.9v6.8h-55.5V616c16.3-1.7,19.6-3.8,28.1-22l51.7-109.4l11-2.5c15.8,36.8,31.6,74.9,48,111.3     c8.3,18.6,11.5,21.2,27.6,22.6v6.8H2540.5z M2517.9,516.7h-0.5c-7.5,16.3-14.3,32.8-21.3,48.7h41.9L2517.9,516.7z" />

		<path d="M2851.5,564.6c-13.6,1.9-14.8,3-14.8,16.5v17.1c0,7.6,0.3,14.4,1.8,20.1c-15.3,3-36.9,7.6-57,7.6     c-57.2,0-94.4-28.1-94.4-70.4c0-48.7,46.4-73.4,98.2-73.4c20.6,0,39.9,4.2,48.7,6.1c0.8,7.2,2,18.6,4,34.1l-8.5,1.5     c-6.3-24.5-24.9-33.4-48.7-33.4c-33.1,0-60,23.3-60,61.8c0,31.5,19.6,65.6,63.5,65.6c6.3,0,12.8-0.8,16.8-3     c4.3-2.1,6.5-5.3,6.5-12.5V583c0-15-1.5-16.5-27.1-18.4v-6.8h71V564.6z" />

		<path d="M3069,588.2c-1.5,8.7-6.5,28.1-8.8,34.5h-125.5V616c21.8-1.5,24.1-3,24.1-20.5v-82.5c0-18.6-2.3-19.7-20.8-20.9v-6.8h116     c0.3,4.2,1.5,18.8,2.5,31.3l-8.5,1.1c-2.3-8-5.3-14.2-9.3-18.2c-4-4.2-10.8-5.7-26.4-5.7h-14.8c-8.8,0-9.5,0.4-9.5,7.2v46.3h19.3     c22.1,0,24.6-1.3,27.9-16.1h8.3V573h-8.3c-3.3-15-6-16.1-27.6-16.1h-19.6v37.7c0,10.2,1.3,15.2,6,17.3c4.8,2.1,13.6,2.3,24.1,2.3     c15.3,0,23.3-1.5,29.1-7c4.8-4.4,9.3-11.4,13.6-20.3L3069,588.2z" />

		<path d="M3287.4,622.7v-7c19.6-1.5,20.6-3,20.3-23.5l-0.5-83.1h-1l-57.7,112.1h-6.3l-53-109.8h-0.8l-3.3,56.9     c-1,17.6-1,27.3-0.3,34.7c0.8,9.5,6,11.4,22.8,12.7v7H3148v-7c14.3-1.1,19.1-4.4,20.8-12.5c1.5-6.8,3.3-17.1,5-39.3l3.8-42.7     c2-25.2,0.3-27.5-21.6-29.2v-6.8h48l51.7,97.3l52.5-97.3h47.7v6.8c-20.8,1.7-22.1,3-21.6,22l2.5,78.3c0.5,20.5,1.5,21.8,21.8,23.5     v7H3287.4z" />

		<path d="M3577.4,588.2c-1.5,8.7-6.5,28.1-8.8,34.5H3443V616c21.8-1.5,24.1-3,24.1-20.5v-82.5c0-18.6-2.3-19.7-20.8-20.9v-6.8h116     c0.3,4.2,1.5,18.8,2.5,31.3l-8.5,1.1c-2.3-8-5.3-14.2-9.3-18.2c-4-4.2-10.8-5.7-26.4-5.7h-14.8c-8.8,0-9.5,0.4-9.5,7.2v46.3h19.3     c22.1,0,24.6-1.3,27.9-16.1h8.3V573h-8.3c-3.3-15-6-16.1-27.6-16.1h-19.6v37.7c0,10.2,1.3,15.2,6,17.3c4.8,2.1,13.6,2.3,24.1,2.3     c15.3,0,23.3-1.5,29.1-7c4.8-4.4,9.3-11.4,13.6-20.3L3577.4,588.2z" />

		<path d="M3832.4,492c-13.6,0.6-19.1,3.4-20.3,12.9c-1,6.6-2,16.3-2,35.3v84.6h-10.5l-105.4-107.5h-0.5v49.7     c0,18.8,1,28.3,1.8,34.7c1.3,9.9,6.3,13.3,24.1,14.2v6.8H3659V616c14.1-0.8,20.1-4,21.1-13.5c1-7,2.3-16.5,2.3-35.3V522     c0-14.6-0.5-17.3-5-22.2c-5-5.3-10.5-7-21.6-7.8v-6.8h42.9l99.2,97.7h0.8v-42.7c0-18.8-1.3-28.8-1.8-34.9     c-1.3-9.3-6.8-12.5-24.9-13.3v-6.8h60.5V492z" />

		<path d="M4051.6,520.1c-3-10.8-6-17.1-10-20.9c-4.3-4.2-9.8-5.5-26.1-5.5h-13.6v101.8c0,17.6,2.3,19.3,25.1,20.5v6.8h-78.3V616     c21.8-1.3,24.1-3,24.1-20.5V493.7h-11c-20.8,0-25.6,2.1-29.1,6.1c-3.8,3.6-6.5,10.4-9.5,20.3h-8.5c1-14.4,2.5-29.2,3-40.2h5.8     c3.8,4.9,7,5.3,14.1,5.3h100.4c6.5,0,9.5-1.3,13.8-5.3h5.8c0,9.1,1.3,26.7,2.5,39.6L4051.6,520.1z" />

	</g>

	<line class="st0" x1="0" y1="386.4" x2="4056.3" y2="386.4" />

</g>

</svg>